<?xml version="1.0" encoding="UTF-8" standalone="no"?><svg xmlns:svg="http://www.w3.org/2000/svg" xmlns="http://www.w3.org/2000/svg" xmlns:xlink="http://www.w3.org/1999/xlink" version="1.0" width="64px" height="64px" viewBox="0 0 128 128" xml:space="preserve"><rect x="0" y="0" width="100%" height="100%" fill="#FFFFFF" /><g><path d="M59.6 0h8v40h-8V0z" fill="#126d9f"/><path d="M59.6 0h8v40h-8V0z" fill="#d0e2ec" transform="rotate(30 64 64)"/><path d="M59.6 0h8v40h-8V0z" fill="#d0e2ec" transform="rotate(60 64 64)"/><path d="M59.6 0h8v40h-8V0z" fill="#d0e2ec" transform="rotate(90 64 64)"/><path d="M59.6 0h8v40h-8V0z" fill="#d0e2ec" transform="rotate(120 64 64)"/><path d="M59.6 0h8v40h-8V0z" fill="#b7d3e2" transform="rotate(150 64 64)"/><path d="M59.6 0h8v40h-8V0z" fill="#a0c5d9" transform="rotate(180 64 64)"/><path d="M59.6 0h8v40h-8V0z" fill="#88b6cf" transform="rotate(210 64 64)"/><path d="M59.6 0h8v40h-8V0z" fill="#71a7c5" transform="rotate(240 64 64)"/><path d="M59.6 0h8v40h-8V0z" fill="#5999bc" transform="rotate(270 64 64)"/><path d="M59.6 0h8v40h-8V0z" fill="#418ab2" transform="rotate(300 64 64)"/><path d="M59.6 0h8v40h-8V0z" fill="#297ba8" transform="rotate(330 64 64)"/><animateTransform attributeName="transform" type="rotate" values="0 64 64;30 64 64;60 64 64;90 64 64;120 64 64;150 64 64;180 64 64;210 64 64;240 64 64;270 64 64;300 64 64;330 64 64" calcMode="discrete" dur="1200ms" repeatCount="indefinite"></animateTransform></g></svg>